<?xml version="1.0" encoding="UTF-8" standalone="no"?>
<!DOCTYPE svg PUBLIC "-//W3C//DTD SVG 1.1//EN" "http://www.w3.org/Graphics/SVG/1.1/DTD/svg11.dtd">
<svg width="100%" height="100%" viewBox="0 0 512 512" version="1.1" xmlns="http://www.w3.org/2000/svg" xmlns:xlink="http://www.w3.org/1999/xlink" xml:space="preserve" xmlns:serif="http://www.serif.com/" style="fill-rule:evenodd;clip-rule:evenodd;stroke-linejoin:round;stroke-miterlimit:2;">
    <g transform="matrix(0.422438,0,0,0.422438,-169.455,-66.9077)">
        <path d="M661.649,464.225C673.992,462.79 683.763,463.673 695.027,469.183C729.858,486.222 723.041,529.615 723.101,560.428L723.246,680.029L723.206,916.541L723.154,993.244C723.106,1031.43 729.583,1069.74 683.084,1083.48C664.124,1085.43 650.539,1082.44 636.347,1068.71C617.989,1050.96 621.916,1026.91 621.549,1003.6C621.233,983.577 621.516,963.38 621.503,943.337L621.765,744.778L621.659,593.772C621.637,566.984 621.48,540.247 621.921,513.461C622.351,487.328 637.615,471.92 661.649,464.225Z" style="fill:rgb(245,132,38);fill-rule:nonzero;"/>
    </g>
    <g transform="matrix(0.422438,0,0,0.422438,-169.455,-66.9077)">
        <path d="M503.317,608.24C515.67,607.416 527.924,610.919 537.976,618.147C564.619,636.91 558.968,669.557 558.993,698.523L559.042,776.675L559.047,858.114C559.035,898.507 565.515,940.807 513.07,950.584C490.709,953.047 465.067,935.803 460.578,913.396C456.916,895.114 458.44,870.902 458.492,851.758L458.595,765.888L458.412,698.387C458.102,658.489 451.536,617.623 503.317,608.24Z" style="fill:rgb(245,132,38);fill-rule:nonzero;"/>
    </g>
    <g transform="matrix(0.844876,0,0,0.844876,-169.455,-66.9077)">
        <path d="M780.575,444.228C778.553,448.035 776.743,451.985 774.295,455.533C770.281,461.351 762.33,475.991 756.49,479.134C747.945,483.733 735.83,489.183 726.585,492.764C723.875,493.813 719.481,493.444 716.165,492.402C704.772,488.825 680.92,465.59 658.225,471.298C652.755,472.674 643.069,477.864 639.87,480.423C638.234,481.732 638.395,485.14 639.03,486.653C643.59,497.479 650.375,514.32 660.875,520.29C671.71,526.455 685.26,523.425 695.35,517.185C700.015,514.3 710.248,504.706 716.175,509.195C726.205,516.791 712.755,556.13 710.41,559.83C705.485,567.575 697.515,574.455 688.25,576.165C679.295,577.82 667.784,576.998 657.99,577.2C648.49,577.396 638.99,577.23 629.485,577.375C621.365,553.145 601.018,531.833 581.035,521.79C561.052,511.747 530.675,509.869 509.585,517.115C488.495,524.361 466.297,541.221 454.423,564.06C445.577,581.075 442.703,627.6 424.735,634C418.309,636.29 411.224,635.665 405.15,632.625C399.125,629.605 394.207,623.96 392.292,617.48C389.803,609.055 391.17,583.795 390.988,566.945C390.753,545.26 390.974,177.859 391.121,166.06C391.188,160.623 391.574,156.43 394.336,151.613C397.887,145.375 403.801,140.829 410.743,139C424.581,135.487 433.889,144.218 442.035,153.772C447.297,159.942 452.96,166.144 458.659,171.914C445.999,186.365 439.943,201.251 441.149,220.73C442.385,239.126 450.933,256.262 464.886,268.315C475.393,277.533 487.541,282.447 500.675,286.761L501.81,285.916C484.893,278.515 468.332,261.211 461.598,243.949C457.024,232.226 456.254,217.969 457.872,205.56C462.095,173.177 496.299,154.012 526.24,167.561C537.89,172.72 546.925,182.424 551.24,194.416C552.115,196.802 553.305,202.212 554.235,203.647C564.82,206.363 574.62,208.443 585.215,211.657C618.355,221.899 650.105,236.189 679.745,254.204C691.425,261.19 705.585,269.274 712.77,281.211C721.64,295.952 721.015,308.185 720.37,324.544C725.46,331.158 733.841,339.463 740.67,346.838C750.274,357.21 768.821,376.893 777.995,386.777C783.948,393.19 793.226,400.533 795.715,406.145C797.684,410.585 794.724,415.934 792.93,420.448C790.407,426.795 783.681,438.38 780.575,444.228ZM684.604,330.958C681.079,311.363 665.134,315.377 648.455,315.413L605.2,315.455C610.19,320.141 616.765,325.155 622.16,329.519L645.268,348.436C656.005,343.471 676.006,334.31 684.604,330.958Z" style="fill:rgb(245,132,38);fill-rule:nonzero;"/>
    </g>
</svg>
